<?xml version="1.0" encoding="UTF-8" standalone="no"?>
<svg width="161px" height="162px" viewBox="0 0 161 162" version="1.1" xmlns="http://www.w3.org/2000/svg" xmlns:xlink="http://www.w3.org/1999/xlink" xmlns:sketch="http://www.bohemiancoding.com/sketch/ns">
    <!-- Generator: Sketch 3.4.4 (17249) - http://www.bohemiancoding.com/sketch -->
    <title>mouse</title>
    <desc>Created with Sketch.</desc>
    <defs></defs>
    <g id="Page-1" stroke="none" stroke-width="1" fill="none" fill-rule="evenodd" sketch:type="MSPage">
        <path d="M0.016,0.999 L160.017,0.999 L160.017,161.001 L0.016,161.001 L0.016,0.999 Z" id="Fill-82" fill="#F0CB7E" sketch:type="MSShapeGroup"></path>
        <path d="M69.737,122.887 C66.29,123.064 62.752,122.499 61.432,121.84 C56.445,119.402 54.482,115.25 55.024,113.355 C56.524,113.009 57.729,112.171 58.975,111.428 C54.966,110.706 52.023,108.1 49.338,104.555 C47.307,101.848 45.412,96.703 41.756,96.026 C38.535,96.624 35.839,98.795 33.02,100.416 C33.22,101.021 33.427,101.629 33.651,102.24 C34.87,105.49 37.345,111.545 42.655,115.373 C57.936,124.218 60.457,123.97 68.851,128.979 C72.806,131.338 74.334,132.936 79.095,132.856 L79.095,126.068 C75.192,126.068 71.599,124.965 69.737,122.887" id="Fill-85" fill="#A88F84" sketch:type="MSShapeGroup"></path>
        <path d="M116.416,96.013 C112.76,96.689 110.865,101.834 108.835,104.542 C106.149,108.087 103.207,110.692 99.198,111.414 C100.443,112.158 101.648,112.995 103.148,113.342 C103.689,115.237 101.727,119.389 96.741,121.826 C95.423,122.484 91.901,123.047 88.463,122.875 C86.605,124.96 83.006,126.068 79.095,126.068 L79.095,132.856 C83.856,132.936 85.385,131.338 89.34,128.979 C97.733,123.97 100.253,124.218 115.536,115.373 C120.845,111.545 123.32,105.49 124.539,102.24 C124.764,101.628 124.972,101.02 125.171,100.412 C122.345,98.791 119.644,96.611 116.416,96.013" id="Fill-86" fill="#978379" sketch:type="MSShapeGroup"></path>
        <path d="M74.401,77.06 C73.725,74.215 72.777,71.103 71.017,68.801 C68.31,70.56 64.926,76.382 63.165,79.089 C73.635,83.241 75.602,97.019 72.353,110.15 L72.203,110.297 C72.564,110.519 72.913,110.772 73.248,111.056 C74.607,109.928 77.586,109.781 79.095,109.822 L79.095,70.132 C78.554,71.757 75.891,75.299 74.401,77.06" id="Fill-87" fill="#7D6457" sketch:type="MSShapeGroup"></path>
        <path d="M95.026,79.089 C93.266,76.382 89.881,70.56 87.173,68.801 C85.413,71.103 84.466,74.215 83.789,77.06 C82.3,75.299 79.636,71.757 79.095,70.132 L79.095,109.822 C80.597,109.781 83.558,109.927 84.925,111.042 C85.26,110.759 85.608,110.505 85.97,110.284 L85.819,110.138 C82.57,97.005 84.556,83.241 95.026,79.089" id="Fill-88" fill="#715B4F" sketch:type="MSShapeGroup"></path>
        <path d="M103.148,113.342 C101.648,112.996 100.443,112.158 99.198,111.414 C98.982,111.287 98.766,111.16 98.545,111.04 C94.638,108.842 89.685,107.995 85.97,110.284 C85.608,110.505 85.26,110.759 84.925,111.041 C85.076,111.166 85.214,111.298 85.323,111.447 C85.718,111.869 85.532,113.443 84.466,113.025 C82.208,111.988 79.907,115.576 82.435,116.32 C82.232,117.044 81.322,117.396 80.434,117.556 C80.027,121.3 84.179,122.66 88.463,122.874 C91.901,123.047 95.423,122.484 96.741,121.826 C101.727,119.389 103.689,115.237 103.148,113.342" id="Fill-89" fill="#A88F84" sketch:type="MSShapeGroup"></path>
        <path d="M77.737,117.553 C78.157,121.301 74.018,122.667 69.737,122.887 C71.599,124.965 75.192,126.068 79.095,126.068 L79.095,117.674 C78.735,117.674 78.238,117.644 77.737,117.553" id="Fill-90" fill="#8D2A22" sketch:type="MSShapeGroup"></path>
        <path d="M80.434,117.556 C79.939,117.644 79.451,117.674 79.095,117.674 L79.095,126.068 C83.006,126.068 86.604,124.96 88.463,122.874 C84.179,122.66 80.027,121.3 80.434,117.556" id="Fill-91" fill="#701F17" sketch:type="MSShapeGroup"></path>
        <path d="M77.737,117.553 C76.855,117.391 75.957,117.039 75.756,116.32 C78.283,115.576 75.981,111.988 73.725,113.025 C72.659,113.443 72.473,111.869 72.868,111.447 C72.972,111.304 73.104,111.175 73.248,111.056 C72.913,110.772 72.564,110.52 72.203,110.297 C68.488,108.009 63.535,108.855 59.626,111.054 C59.407,111.173 59.19,111.3 58.975,111.428 C57.729,112.171 56.524,113.009 55.024,113.355 C54.482,115.25 56.445,119.402 61.432,121.84 C62.752,122.499 66.29,123.064 69.737,122.887 C74.018,122.667 78.157,121.301 77.737,117.553" id="Fill-92" fill="#BC9D8E" sketch:type="MSShapeGroup"></path>
        <path d="M54.753,58.796 C50.015,60.285 45.141,65.159 42.298,69.085 C41.485,70.303 40.538,71.657 39.59,72.74 C36.612,70.032 34.852,68.138 33.363,64.347 C31.061,58.254 29.572,50.673 29.437,44.175 C29.301,40.519 29.978,30.23 35.259,30.23 C37.56,30.907 39.861,31.99 41.756,33.344 C49.338,38.759 58.543,48.913 54.753,58.796 M61.424,49.133 C57.486,42.533 49.132,36.483 44.482,32.248 C42.316,30.352 40.014,28.05 37.171,27.374 C32.975,26.155 30.266,30.487 29.184,33.872 C27.694,38.611 27.289,43.484 27.694,48.358 C27.965,51.201 28.236,54.044 29.049,56.751 C30.199,61.693 31.35,66.905 31.756,71.508 C32.01,75.863 31.497,76.965 31.094,80.628 C36.223,78.289 39.6,75.069 42.632,70.967 C47.9,63.047 61.134,61.083 63.165,71.779 C63.606,74.102 63.436,76.788 63.165,79.089 C64.926,76.382 68.31,70.56 71.017,68.801 C72.777,71.103 73.725,74.215 74.401,77.06 C75.891,75.299 78.554,71.757 79.095,70.132 L79.095,47.915 C76.418,47.774 73.728,48.21 71.086,48.645 C67.746,49.196 64.483,49.747 61.424,49.133" id="Fill-93" fill="#454239" sketch:type="MSShapeGroup"></path>
        <path d="M128.736,44.161 C128.601,50.659 127.111,58.241 124.81,64.333 C123.32,68.124 121.561,70.019 118.583,72.727 C117.634,71.644 116.687,70.29 115.875,69.072 C113.031,65.145 108.158,60.272 103.419,58.782 C99.628,48.899 108.835,38.746 116.416,33.331 C118.312,31.976 120.613,30.893 122.914,30.217 C128.194,30.217 128.872,40.505 128.736,44.161 M129.006,33.872 C127.923,30.487 125.217,26.155 121.019,27.374 C118.176,28.05 115.875,30.352 113.709,32.248 C109.059,36.483 100.704,42.533 96.766,49.133 C93.706,49.747 90.443,49.196 87.103,48.645 C84.462,48.21 81.772,47.774 79.095,47.915 L79.095,70.132 C79.636,71.757 82.3,75.299 83.789,77.06 C84.466,74.215 85.413,71.103 87.173,68.801 C89.881,70.56 93.266,76.382 95.026,79.089 C94.755,76.788 94.584,74.102 95.026,71.779 C97.056,61.083 110.29,63.047 115.558,70.967 C118.59,75.069 121.967,78.289 127.096,80.628 C126.693,76.965 126.181,75.863 126.434,71.508 C126.841,66.905 127.992,61.693 129.142,56.751 C129.955,54.044 130.225,51.201 130.496,48.358 C130.902,43.484 130.496,38.611 129.006,33.872" id="Fill-94" fill="#3A3831" sketch:type="MSShapeGroup"></path>
        <path d="M105.63,87.754 C105.176,87.269 104.441,86.652 103.474,86.062 C104.225,87.302 104.657,88.756 104.657,90.311 C104.657,94.847 100.98,98.525 96.443,98.525 C93.061,98.525 90.157,96.479 88.899,93.558 C88.598,95.236 88.536,96.893 88.663,98.314 C91.19,100.029 94.8,101.112 97.868,100.48 C101.839,99.578 104.908,96.961 105.721,92.899 C106.082,91.184 106.172,89.469 105.63,87.754" id="Fill-95" fill="#AE9B93" sketch:type="MSShapeGroup"></path>
        <path d="M105.721,92.899 C104.908,96.961 101.839,99.578 97.868,100.48 C94.8,101.112 91.19,100.029 88.663,98.314 C88.536,96.893 88.598,95.236 88.899,93.558 C89.619,89.532 91.711,85.38 95.882,84.054 C99.02,83.937 101.657,84.953 103.474,86.062 C104.441,86.652 105.176,87.269 105.63,87.754 C106.172,89.469 106.082,91.184 105.721,92.899 M127.246,82.203 C127.199,81.626 127.149,81.105 127.096,80.628 C121.967,78.289 118.59,75.069 115.558,70.967 C110.29,63.047 97.056,61.083 95.026,71.779 C94.584,74.102 94.755,76.788 95.026,79.089 C84.556,83.241 82.57,97.005 85.819,110.138 L85.97,110.284 C89.685,107.995 94.638,108.842 98.545,111.04 C98.766,111.16 98.982,111.286 99.198,111.414 C103.207,110.692 106.149,108.087 108.835,104.542 C110.865,101.834 112.76,96.689 116.416,96.013 C119.644,96.611 122.345,98.791 125.171,100.412 C127.132,94.428 127.861,88.594 127.246,82.203" id="Fill-96" fill="#7F6759" sketch:type="MSShapeGroup"></path>
        <path d="M96.605,86.04 C99.777,87.257 100.95,90.55 99.127,93.318 C98.627,94.007 97.813,94.666 97.056,95.156 C96.334,94.885 95.612,94.433 95.071,93.891 C92.995,91.636 93.537,87.213 96.605,86.04 M96.443,98.525 C100.98,98.525 104.657,94.847 104.657,90.311 C104.657,88.756 104.225,87.302 103.474,86.062 C101.657,84.953 99.02,83.937 95.882,84.054 C91.711,85.38 89.619,89.532 88.899,93.558 C90.157,96.479 93.061,98.525 96.443,98.525" id="Fill-97" fill="#488AA2" sketch:type="MSShapeGroup"></path>
        <path d="M97.056,95.156 C97.813,94.666 98.627,94.007 99.127,93.318 C100.95,90.55 99.777,87.257 96.605,86.04 C93.537,87.213 92.995,91.636 95.071,93.891 C95.612,94.433 96.334,94.885 97.056,95.156" id="Fill-98" fill="#171918" sketch:type="MSShapeGroup"></path>
        <path d="M73.248,111.056 C73.104,111.175 72.972,111.304 72.868,111.447 C72.473,111.869 72.659,113.443 73.725,113.025 C75.981,111.988 78.283,115.576 75.756,116.32 C75.957,117.039 76.855,117.391 77.737,117.553 C78.238,117.644 78.735,117.674 79.095,117.674 L79.095,109.822 C77.586,109.781 74.607,109.928 73.248,111.056" id="Fill-99" fill="#BD6959" sketch:type="MSShapeGroup"></path>
        <path d="M85.323,111.447 C85.214,111.298 85.076,111.166 84.925,111.041 C83.558,109.927 80.597,109.781 79.095,109.822 L79.095,117.674 C79.451,117.674 79.939,117.644 80.434,117.556 C81.322,117.396 82.232,117.044 82.435,116.32 C79.907,115.576 82.208,111.988 84.466,113.025 C85.532,113.443 85.718,111.869 85.323,111.447" id="Fill-100" fill="#C05C49" sketch:type="MSShapeGroup"></path>
        <path d="M122.914,30.217 C120.613,30.893 118.312,31.976 116.416,33.331 C108.834,38.746 99.628,48.899 103.419,58.782 C108.158,60.272 113.031,65.145 115.875,69.072 C116.687,70.29 117.634,71.644 118.583,72.727 C121.561,70.019 123.32,68.124 124.81,64.334 C127.111,58.241 128.601,50.659 128.736,44.161 C128.872,40.505 128.194,30.217 122.914,30.217" id="Fill-101" fill="#9B6E69" sketch:type="MSShapeGroup"></path>
        <path d="M69.274,93.571 C68.016,96.493 65.111,98.538 61.728,98.538 C57.192,98.538 53.516,94.861 53.516,90.325 C53.516,88.77 53.948,87.315 54.698,86.076 C53.731,86.666 52.997,87.282 52.542,87.768 C52.001,89.482 52.091,91.198 52.452,92.913 C53.264,96.974 56.333,99.591 60.304,100.494 C63.373,101.126 66.983,100.043 69.51,98.327 C69.637,96.906 69.574,95.25 69.274,93.571" id="Fill-102" fill="#AE9B93" sketch:type="MSShapeGroup"></path>
        <path d="M69.51,98.327 C66.983,100.043 63.373,101.126 60.304,100.494 C56.333,99.591 53.264,96.974 52.452,92.913 C52.091,91.198 52.001,89.482 52.542,87.768 C52.997,87.282 53.731,86.666 54.698,86.076 C56.516,84.966 59.153,83.949 62.29,84.068 C66.462,85.393 68.555,89.544 69.274,93.571 C69.574,95.25 69.637,96.906 69.51,98.327 M63.165,79.089 C63.436,76.788 63.606,74.102 63.165,71.779 C61.134,61.083 47.9,63.047 42.632,70.967 C39.6,75.069 36.223,78.289 31.094,80.628 C31.041,81.105 30.991,81.626 30.944,82.203 C30.33,88.596 31.058,94.43 33.02,100.416 C35.839,98.795 38.535,96.624 41.756,96.026 C45.412,96.703 47.307,101.848 49.338,104.555 C52.023,108.1 54.966,110.706 58.975,111.428 C59.19,111.3 59.407,111.173 59.626,111.054 C63.535,108.855 68.488,108.009 72.203,110.297 L72.353,110.15 C75.602,97.019 73.635,83.241 63.165,79.089" id="Fill-103" fill="#8A6F60" sketch:type="MSShapeGroup"></path>
        <path d="M61.568,86.053 C64.636,87.226 65.178,91.648 63.102,93.904 C62.561,94.446 61.839,94.898 61.117,95.17 C60.358,94.679 59.545,94.021 59.045,93.332 C57.223,90.563 58.396,87.27 61.568,86.053 M61.728,98.538 C65.111,98.538 68.016,96.493 69.274,93.571 C68.555,89.544 66.462,85.393 62.29,84.068 C59.153,83.949 56.516,84.966 54.698,86.076 C53.948,87.315 53.516,88.77 53.516,90.325 C53.516,94.861 57.192,98.538 61.728,98.538" id="Fill-104" fill="#488AA2" sketch:type="MSShapeGroup"></path>
        <path d="M61.117,95.17 C61.839,94.898 62.561,94.446 63.102,93.904 C65.178,91.648 64.636,87.226 61.568,86.053 C58.396,87.27 57.223,90.563 59.045,93.332 C59.545,94.021 60.358,94.679 61.117,95.17" id="Fill-105" fill="#171918" sketch:type="MSShapeGroup"></path>
        <path d="M41.756,33.344 C39.861,31.99 37.56,30.907 35.259,30.23 C29.979,30.23 29.301,40.519 29.437,44.175 C29.572,50.673 31.061,58.254 33.363,64.347 C34.852,68.138 36.612,70.032 39.59,72.74 C40.538,71.657 41.485,70.303 42.298,69.084 C45.141,65.159 50.015,60.285 54.753,58.795 C58.543,48.913 49.338,38.759 41.756,33.344" id="Fill-106" fill="#AB7970" sketch:type="MSShapeGroup"></path>
        <path d="M62.467,120.36 C60.945,120.686 59.471,121.614 58.221,122.506 C56.907,123.445 55.744,124.585 54.693,125.809 C52.542,128.31 50.792,131.212 49.283,134.136 L49.404,134.206 C51.151,131.498 52.688,128.67 54.757,126.182 C55.774,124.957 56.915,123.835 58.184,122.873 C59.536,121.848 61.027,121.249 62.518,120.483 L62.467,120.36" id="Fill-107" fill="#FFFFFF" sketch:type="MSShapeGroup"></path>
        <path d="M64.146,115.373 C58.626,115.957 53.018,117.712 48.063,120.187 C45.543,121.446 43.163,122.99 41.03,124.832 C38.933,126.643 36.882,128.89 35.697,131.422 L35.799,131.481 C37.34,129.15 38.941,127.01 41.036,125.139 C43.176,123.227 45.622,121.674 48.174,120.376 C53.228,117.806 58.629,116.523 64.164,115.504 L64.146,115.373" id="Fill-108" fill="#FFFFFF" sketch:type="MSShapeGroup"></path>
        <path d="M32.734,120.432 C41.396,113.04 53.495,110.652 64.572,112.37 C64.702,112.39 64.762,112.199 64.628,112.167 C61.639,111.467 58.421,111.451 55.375,111.675 C52.644,111.875 49.928,112.3 47.265,112.947 C41.99,114.228 36.617,116.542 32.721,120.418 L32.734,120.432" id="Fill-109" fill="#FFFFFF" sketch:type="MSShapeGroup"></path>
        <path d="M95.733,120.36 C97.255,120.686 98.729,121.614 99.978,122.506 C101.294,123.445 102.456,124.585 103.507,125.809 C105.658,128.31 107.409,131.212 108.917,134.136 L108.797,134.206 C107.049,131.498 105.512,128.67 103.444,126.182 C102.428,124.957 101.285,123.835 100.016,122.873 C98.665,121.848 97.173,121.249 95.682,120.483 L95.733,120.36" id="Fill-110" fill="#FFFFFF" sketch:type="MSShapeGroup"></path>
        <path d="M94.054,115.373 C99.574,115.957 105.183,117.712 110.137,120.187 C112.657,121.446 115.038,122.99 117.17,124.832 C119.269,126.643 121.318,128.89 122.504,131.422 L122.401,131.481 C120.86,129.15 119.259,127.01 117.165,125.139 C115.024,123.227 112.579,121.674 110.026,120.376 C104.973,117.806 99.572,116.523 94.036,115.504 L94.054,115.373" id="Fill-111" fill="#FFFFFF" sketch:type="MSShapeGroup"></path>
        <path d="M125.466,120.432 C116.805,113.04 104.705,110.652 93.629,112.37 C93.498,112.39 93.438,112.199 93.572,112.167 C96.563,111.467 99.779,111.451 102.825,111.675 C105.557,111.875 108.273,112.3 110.936,112.947 C116.211,114.228 121.583,116.542 125.48,120.418 L125.466,120.432" id="Fill-112" fill="#FFFFFF" sketch:type="MSShapeGroup"></path>
        <path d="M53.134,108.636 C46.052,108.29 40.783,104.986 40.654,104.904 C40.653,104.903 40.652,104.903 40.652,104.903 C38.834,103.519 37.485,100.955 36.508,98.268 C38.164,97.266 39.87,96.376 41.756,96.026 C45.412,96.703 47.307,101.848 49.338,104.555 C50.529,106.127 51.771,107.515 53.134,108.636" id="Fill-114" fill-opacity="0.560518569" fill="#7B6C65" sketch:type="MSShapeGroup"></path>
        <path d="M62.164,100.676 L62.164,100.676 L62.174,100.676 L62.164,100.676 M62.161,100.676 C61.549,100.676 60.946,100.621 60.361,100.505 C60.945,100.621 61.55,100.676 62.161,100.676 M60.36,100.505 C60.342,100.501 60.323,100.497 60.304,100.494 C56.333,99.591 53.264,96.974 52.452,92.913 C52.271,92.055 52.158,91.198 52.158,90.34 C52.158,91.198 52.271,92.055 52.452,92.913 C53.264,96.974 56.333,99.591 60.304,100.494 C60.323,100.497 60.342,100.501 60.36,100.505 M69.333,98.445 C69.34,98.44 69.348,98.435 69.355,98.431 C69.348,98.435 69.34,98.44 69.333,98.445 M69.414,98.391 C69.446,98.37 69.478,98.349 69.51,98.327 C69.55,97.872 69.572,97.393 69.572,96.896 C69.572,97.393 69.55,97.872 69.51,98.327 C69.478,98.349 69.446,98.37 69.414,98.391 M69.274,93.571 C68.555,89.544 66.462,85.393 62.29,84.068 C62.27,84.067 62.249,84.066 62.229,84.066 C62.249,84.066 62.27,84.067 62.29,84.068 C66.462,85.393 68.555,89.544 69.274,93.571 M53.516,90.325 L53.516,90.325 C53.516,88.77 53.948,87.315 54.698,86.076 C54.706,86.071 54.714,86.066 54.721,86.062 C54.714,86.066 54.706,86.071 54.698,86.076 C53.948,87.315 53.516,88.77 53.516,90.325" id="Fill-115" fill="#A18E60" sketch:type="MSShapeGroup"></path>
        <path d="M72.089,88.622 C70.446,84.258 67.552,80.829 63.165,79.089 C63.283,78.909 63.407,78.714 63.539,78.508 C66.256,79.155 67.912,79.728 67.912,79.728 C71.898,81.511 72.184,84.99 72.184,85.946 C72.184,86.105 72.176,86.194 72.176,86.194 C72.169,87.036 72.139,87.844 72.089,88.622" id="Fill-116" fill="#5B4A41" sketch:type="MSShapeGroup"></path>
        <path d="M63.165,79.089 C63.19,78.875 63.215,78.657 63.238,78.437 C63.339,78.461 63.44,78.484 63.539,78.508 C63.407,78.714 63.283,78.909 63.165,79.089" id="Fill-117" fill="#33312C" sketch:type="MSShapeGroup"></path>
        <path d="M62.227,84.066 C62.08,84.061 61.934,84.058 61.79,84.058 C61.934,84.058 62.08,84.061 62.227,84.066 M61.778,84.059 C61.782,84.059 61.786,84.058 61.79,84.058 C61.786,84.058 61.782,84.059 61.778,84.059" id="Fill-118" fill="#A18E60" sketch:type="MSShapeGroup"></path>
        <path d="M62.164,100.676 L62.161,100.676 C61.55,100.676 60.945,100.621 60.361,100.505 C60.361,100.505 60.361,100.505 60.36,100.505 C60.342,100.501 60.323,100.497 60.304,100.494 C56.333,99.591 53.264,96.974 52.452,92.913 C52.271,92.055 52.158,91.198 52.158,90.34 C52.158,89.483 52.271,88.625 52.542,87.768 C52.997,87.282 53.731,86.666 54.698,86.076 C53.948,87.315 53.516,88.77 53.516,90.325 C53.516,94.861 57.192,98.538 61.728,98.538 C65.111,98.538 68.016,96.493 69.274,93.571 C69.478,94.712 69.572,95.843 69.572,96.896 C69.572,97.393 69.55,97.872 69.51,98.327 C69.478,98.349 69.446,98.37 69.414,98.391 C69.394,98.405 69.374,98.418 69.355,98.431 C69.348,98.435 69.34,98.44 69.333,98.445 C67.326,99.759 64.683,100.673 62.174,100.676 L62.164,100.676" id="Fill-119" fill="#80736F" sketch:type="MSShapeGroup"></path>
        <path d="M54.322,108.665 L54.314,108.665 C53.916,108.665 53.522,108.655 53.134,108.636 C51.771,107.515 50.529,106.127 49.338,104.555 C47.307,101.848 45.412,96.703 41.756,96.026 C39.87,96.376 38.164,97.266 36.508,98.268 C34.832,93.663 34.244,88.698 34.244,88.698 C34.051,87.54 33.966,86.504 33.967,85.577 C33.97,78.724 38.636,77.85 38.636,77.85 C38.669,77.842 38.701,77.834 38.733,77.826 C42.108,77.008 45.559,76.698 48.853,76.698 L48.857,76.698 L48.865,76.698 C54.52,76.699 59.709,77.613 63.238,78.437 C63.215,78.657 63.19,78.875 63.165,79.089 C67.552,80.829 70.446,84.258 72.089,88.622 C71.144,103.375 62.969,106.966 62.969,106.966 C62.951,106.973 62.932,106.981 62.914,106.989 C59.94,108.211 57.02,108.664 54.325,108.665 L54.322,108.665 M62.164,100.676 L62.164,100.676 L62.174,100.676 C64.683,100.673 67.326,99.759 69.333,98.445 C69.34,98.44 69.348,98.435 69.355,98.431 C69.374,98.418 69.394,98.405 69.414,98.391 C69.446,98.37 69.478,98.349 69.51,98.327 C69.55,97.872 69.572,97.393 69.572,96.896 C69.572,95.843 69.478,94.712 69.274,93.571 C68.555,89.544 66.462,85.393 62.29,84.068 C62.27,84.067 62.249,84.066 62.229,84.066 L62.227,84.066 C62.08,84.061 61.934,84.058 61.79,84.058 C61.786,84.058 61.782,84.059 61.778,84.059 C58.9,84.061 56.475,85.004 54.759,86.039 C54.746,86.047 54.734,86.054 54.721,86.062 C54.714,86.066 54.706,86.071 54.698,86.076 C53.731,86.666 52.997,87.282 52.542,87.768 C52.271,88.625 52.158,89.483 52.158,90.34 C52.158,91.198 52.271,92.055 52.452,92.913 C53.264,96.974 56.333,99.591 60.304,100.494 C60.323,100.497 60.342,100.501 60.36,100.505 L60.361,100.505 C60.946,100.621 61.549,100.676 62.161,100.676 L62.164,100.676" id="Fill-120" fill-opacity="0.5" fill="#665449" sketch:type="MSShapeGroup"></path>
        <path d="M61.728,98.538 C57.192,98.538 53.516,94.861 53.516,90.325 C53.516,88.77 53.948,87.315 54.698,86.076 C54.706,86.071 54.714,86.066 54.721,86.062 C54.734,86.054 54.746,86.047 54.759,86.039 C56.475,85.004 58.9,84.061 61.778,84.059 C61.782,84.059 61.786,84.058 61.79,84.058 C61.934,84.058 62.08,84.061 62.227,84.066 L62.229,84.066 C62.249,84.066 62.27,84.067 62.29,84.068 C66.462,85.393 68.555,89.544 69.274,93.571 C68.016,96.493 65.111,98.538 61.728,98.538 M58.183,90.579 C58.182,91.493 58.458,92.44 59.045,93.332 C59.545,94.021 60.358,94.679 61.117,95.17 C61.839,94.898 62.561,94.446 63.102,93.904 C63.929,93.005 64.341,91.763 64.342,90.518 C64.345,88.64 63.414,86.758 61.568,86.053 C59.418,86.878 58.186,88.656 58.183,90.579" id="Fill-121" fill="#3C6779" sketch:type="MSShapeGroup"></path>
        <path d="M61.117,95.17 C60.358,94.679 59.545,94.021 59.045,93.332 C58.458,92.44 58.182,91.493 58.183,90.579 C58.186,88.656 59.418,86.878 61.568,86.053 C63.414,86.758 64.345,88.64 64.342,90.518 C64.341,91.763 63.929,93.005 63.102,93.904 C62.561,94.446 61.839,94.898 61.117,95.17" id="Fill-122" fill="#141515" sketch:type="MSShapeGroup"></path>
        <path d="M54.322,108.665 L54.314,108.665 L54.322,108.665 M54.325,108.665 C57.02,108.664 59.94,108.211 62.914,106.989 C59.939,108.211 57.021,108.664 54.325,108.665 M62.969,106.966 L62.969,106.966 C62.969,106.966 71.144,103.375 72.089,88.622 C72.139,87.844 72.169,87.036 72.176,86.194 C72.176,86.194 72.184,86.105 72.184,85.946 C72.184,86.105 72.176,86.194 72.176,86.194 C72.029,102.987 62.969,106.966 62.969,106.966 M40.654,104.904 C40.653,104.903 40.652,104.903 40.652,104.903 C35.717,101.146 34.244,88.698 34.244,88.698 C34.051,87.54 33.966,86.504 33.967,85.577 C33.966,86.504 34.051,87.54 34.244,88.698 C34.244,88.698 34.832,93.663 36.508,98.268 C37.485,100.955 38.834,103.519 40.652,104.903 C40.652,104.903 40.653,104.903 40.654,104.904 M38.733,77.826 C42.109,77.008 45.559,76.698 48.853,76.698 C45.559,76.698 42.108,77.008 38.733,77.826 M48.865,76.698 L48.857,76.698 L48.865,76.698" id="Fill-123" fill="#181818" sketch:type="MSShapeGroup"></path>
        <path d="M123.96,88.698 C123.96,88.698 122.486,101.146 117.552,104.902 C117.552,104.902 106.797,111.752 95.233,106.965 C95.233,106.965 86.173,102.987 86.026,86.193 C86.026,86.193 85.641,81.807 90.29,79.728 C90.29,79.728 105.61,74.425 119.567,77.85 C119.567,77.85 125.58,78.976 123.96,88.698 M132.501,75.955 C107.752,71.094 84.527,77.281 84.527,77.281 C83.004,77.919 79.1,78.215 79.1,78.215 L79.095,78.215 L79.095,86.12 L79.1,86.12 C81.973,86.194 83.226,89.287 83.226,89.287 C86.171,104.534 93.832,107.701 93.832,107.701 C102.67,112.783 114.455,108.664 114.455,108.664 C120.643,106.533 122.926,101.661 122.926,101.661 C125.578,97.168 127.934,87.887 127.934,87.887 C129.113,83.1 131.47,82.78 131.47,82.78 L132.698,77.109 C132.869,76.2 132.501,75.955 132.501,75.955 M72.176,86.194 C72.029,102.987 62.969,106.966 62.969,106.966 C51.405,111.753 40.652,104.903 40.652,104.903 C35.717,101.146 34.244,88.698 34.244,88.698 C32.623,78.976 38.636,77.85 38.636,77.85 C52.593,74.425 67.912,79.728 67.912,79.728 C72.561,81.807 72.176,86.194 72.176,86.194 M73.674,77.282 C73.674,77.282 50.448,71.095 25.7,75.957 C25.7,75.957 25.332,76.202 25.504,77.11 L26.731,82.781 C26.731,82.781 29.087,83.101 30.266,87.889 C30.266,87.889 32.623,97.169 35.275,101.663 C35.275,101.663 37.558,106.534 43.746,108.664 C43.746,108.664 55.53,112.784 64.369,107.702 C64.369,107.702 72.029,104.535 74.976,89.288 C74.976,89.288 76.226,86.198 79.095,86.12 L79.095,78.215 C78.989,78.206 75.175,77.911 73.674,77.282" id="glasses" fill="#410403" sketch:type="MSShapeGroup"></path>
        <path d="M105.02,108.637 C106.39,107.514 107.638,106.122 108.835,104.542 C110.865,101.834 112.76,96.689 116.416,96.013 C118.313,96.364 120.029,97.262 121.694,98.272 C120.717,100.957 119.369,103.519 117.552,104.902 C117.552,104.902 112.216,108.301 105.02,108.637" id="Fill-125" fill-opacity="0.560518569" fill="#7B6C65" sketch:type="MSShapeGroup"></path>
        <path d="M96.01,100.662 L96.01,100.662 L96.012,100.662 L96.01,100.662 M96,100.662 C93.51,100.66 90.889,99.76 88.887,98.462 C90.889,99.76 93.51,100.66 96,100.662 M97.812,100.492 C97.831,100.488 97.849,100.484 97.868,100.48 C101.839,99.578 104.908,96.961 105.721,92.899 C105.901,92.042 106.014,91.184 106.014,90.327 C106.014,91.184 105.901,92.042 105.721,92.899 C104.908,96.961 101.839,99.578 97.868,100.48 C97.849,100.484 97.831,100.488 97.812,100.492 M88.862,98.447 C88.859,98.444 88.855,98.442 88.851,98.439 C88.855,98.442 88.859,98.444 88.862,98.447 M88.788,98.398 C88.786,98.396 88.783,98.395 88.781,98.393 C88.783,98.395 88.786,98.396 88.788,98.398 M88.899,93.558 L88.899,93.558 C89.619,89.532 91.711,85.38 95.882,84.054 C95.903,84.053 95.924,84.052 95.945,84.052 C95.924,84.052 95.903,84.053 95.882,84.054 C91.711,85.38 89.619,89.532 88.899,93.558 M104.657,90.311 C104.657,88.756 104.225,87.302 103.474,86.062 C103.454,86.05 103.434,86.038 103.414,86.026 C103.434,86.038 103.454,86.05 103.474,86.062 C104.225,87.302 104.657,88.756 104.657,90.311" id="Fill-126" fill="#9C8A5D" sketch:type="MSShapeGroup"></path>
        <path d="M86.11,88.576 C86.062,87.812 86.034,87.018 86.026,86.193 C86.026,86.193 86.018,86.104 86.019,85.945 C86.019,84.989 86.304,81.51 90.29,79.728 C90.29,79.728 90.291,79.728 90.292,79.727 C90.357,79.705 91.997,79.143 94.654,78.51 C94.785,78.715 94.909,78.909 95.026,79.089 C90.653,80.823 87.76,84.235 86.11,88.576" id="Fill-127" fill="#4B3E35" sketch:type="MSShapeGroup"></path>
        <path d="M95.026,79.089 C94.909,78.909 94.785,78.715 94.654,78.51 C94.753,78.486 94.852,78.463 94.954,78.439 C94.977,78.659 95.001,78.876 95.026,79.089" id="Fill-128" fill="#282722" sketch:type="MSShapeGroup"></path>
        <path d="M103.307,85.961 C101.598,84.952 99.21,84.047 96.388,84.045 C99.21,84.047 101.598,84.952 103.307,85.961 M96.376,84.045 L96.377,84.045 L96.376,84.045" id="Fill-129" fill="#9C8A5D" sketch:type="MSShapeGroup"></path>
        <path d="M96.01,100.662 L96,100.662 C93.51,100.66 90.889,99.76 88.887,98.462 C88.879,98.457 88.87,98.452 88.862,98.447 C88.859,98.444 88.855,98.442 88.851,98.439 C88.83,98.425 88.809,98.412 88.788,98.398 C88.786,98.396 88.783,98.395 88.781,98.393 C88.741,98.367 88.702,98.341 88.663,98.314 C88.622,97.859 88.601,97.379 88.6,96.883 C88.6,95.829 88.694,94.698 88.899,93.558 C90.157,96.479 93.061,98.525 96.443,98.525 C100.98,98.525 104.657,94.847 104.657,90.311 C104.657,88.756 104.225,87.302 103.474,86.062 C104.441,86.652 105.176,87.269 105.63,87.754 C105.901,88.612 106.014,89.469 106.014,90.327 C106.014,91.184 105.901,92.042 105.721,92.899 C104.908,96.961 101.839,99.578 97.868,100.48 C97.849,100.484 97.831,100.488 97.812,100.492 C97.227,100.608 96.624,100.662 96.012,100.662 L96.01,100.662" id="Fill-130" fill="#7B6F6A" sketch:type="MSShapeGroup"></path>
        <path d="M103.882,108.664 L103.878,108.664 C101.193,108.663 98.285,108.213 95.324,107.002 C95.312,106.997 95.301,106.993 95.289,106.988 C95.27,106.98 95.252,106.972 95.233,106.965 C95.233,106.965 87.042,103.367 86.11,88.576 C87.76,84.235 90.653,80.823 95.026,79.089 C95.001,78.876 94.977,78.659 94.954,78.439 C98.483,77.614 103.677,76.698 109.34,76.698 L109.346,76.698 L109.35,76.698 C112.675,76.698 116.162,77.014 119.567,77.85 C119.567,77.85 124.232,78.723 124.237,85.577 C124.237,86.504 124.153,87.54 123.96,88.698 C123.96,88.698 123.372,93.666 121.694,98.272 C120.029,97.262 118.313,96.364 116.416,96.013 C112.76,96.689 110.865,101.834 108.835,104.542 C107.638,106.122 106.39,107.514 105.02,108.637 C104.648,108.655 104.271,108.664 103.889,108.664 L103.882,108.664 M96.01,100.662 L96.01,100.662 L96.012,100.662 C96.624,100.662 97.227,100.608 97.812,100.492 C97.831,100.488 97.849,100.484 97.868,100.48 C101.839,99.578 104.908,96.961 105.721,92.899 C105.901,92.042 106.014,91.184 106.014,90.327 C106.014,89.469 105.901,88.612 105.63,87.754 C105.176,87.269 104.441,86.652 103.474,86.062 C103.454,86.05 103.434,86.038 103.414,86.026 C103.379,86.004 103.343,85.983 103.307,85.961 C101.598,84.952 99.21,84.047 96.388,84.045 L96.377,84.045 L96.376,84.045 C96.233,84.045 96.089,84.047 95.945,84.052 C95.924,84.052 95.903,84.053 95.882,84.054 C91.711,85.38 89.619,89.532 88.899,93.558 C88.694,94.698 88.6,95.829 88.6,96.883 C88.601,97.379 88.622,97.859 88.663,98.314 C88.702,98.341 88.741,98.367 88.781,98.393 C88.783,98.395 88.786,98.396 88.788,98.398 C88.809,98.412 88.83,98.425 88.851,98.439 C88.855,98.442 88.859,98.444 88.862,98.447 C88.87,98.452 88.879,98.457 88.887,98.462 C90.889,99.76 93.51,100.66 96,100.662 L96.01,100.662" id="Fill-131" fill-opacity="0.5" fill="#665449" sketch:type="MSShapeGroup"></path>
        <path d="M96.443,98.525 C93.061,98.525 90.157,96.479 88.899,93.558 C89.619,89.532 91.711,85.38 95.882,84.054 C95.903,84.053 95.924,84.052 95.945,84.052 C96.089,84.047 96.233,84.045 96.376,84.045 L96.377,84.045 L96.388,84.045 C99.21,84.047 101.598,84.952 103.307,85.961 C103.343,85.983 103.379,86.004 103.414,86.026 C103.434,86.038 103.454,86.05 103.474,86.062 C104.225,87.302 104.657,88.756 104.657,90.311 C104.657,94.847 100.98,98.525 96.443,98.525 M93.83,90.506 C93.832,91.75 94.244,92.993 95.071,93.891 C95.612,94.433 96.334,94.885 97.056,95.156 C97.813,94.666 98.627,94.007 99.127,93.318 C99.715,92.426 99.991,91.479 99.989,90.565 C99.986,88.643 98.754,86.865 96.605,86.04 C94.759,86.746 93.828,88.627 93.83,90.506" id="Fill-132" fill="#396375" sketch:type="MSShapeGroup"></path>
        <path d="M97.056,95.156 C96.334,94.885 95.612,94.433 95.071,93.891 C94.244,92.993 93.832,91.75 93.83,90.506 C93.828,88.627 94.759,86.746 96.605,86.04 C98.754,86.865 99.986,88.643 99.989,90.565 C99.991,91.479 99.715,92.426 99.127,93.318 C98.627,94.007 97.813,94.666 97.056,95.156" id="Fill-133" fill="#0F1211" sketch:type="MSShapeGroup"></path>
        <path d="M103.882,108.664 L103.878,108.664 L103.882,108.664 M103.889,108.664 C104.271,108.664 104.648,108.655 105.02,108.637 C112.216,108.301 117.552,104.902 117.552,104.902 C119.369,103.519 120.717,100.957 121.694,98.272 C123.372,93.666 123.96,88.698 123.96,88.698 C124.153,87.54 124.237,86.504 124.237,85.577 C124.237,86.504 124.153,87.54 123.96,88.698 C123.96,88.698 122.486,101.146 117.552,104.902 C117.552,104.902 111.651,108.662 103.889,108.664 M95.324,107.002 C95.312,106.997 95.301,106.993 95.289,106.988 C95.301,106.993 95.312,106.997 95.324,107.002 M95.233,106.965 L95.233,106.965 C95.233,106.965 86.173,102.987 86.026,86.193 C86.026,86.193 86.018,86.104 86.019,85.945 C86.018,86.104 86.026,86.193 86.026,86.193 C86.034,87.018 86.062,87.812 86.11,88.576 C87.042,103.367 95.233,106.965 95.233,106.965 M90.292,79.727 C90.444,79.675 99.13,76.698 109.34,76.698 C103.677,76.698 98.483,77.614 94.954,78.439 C94.852,78.463 94.753,78.486 94.654,78.51 C91.997,79.143 90.357,79.705 90.292,79.727 M109.35,76.698 L109.346,76.698 L109.35,76.698" id="Fill-134" fill="#080B0A" sketch:type="MSShapeGroup"></path>
    </g>
</svg>