<?xml version="1.0" encoding="UTF-8" standalone="no"?>
<svg width="161px" height="161px" viewBox="0 0 161 161" version="1.1" xmlns="http://www.w3.org/2000/svg" xmlns:xlink="http://www.w3.org/1999/xlink" xmlns:sketch="http://www.bohemiancoding.com/sketch/ns">
    <!-- Generator: Sketch 3.4.4 (17249) - http://www.bohemiancoding.com/sketch -->
    <title>racoon</title>
    <desc>Created with Sketch.</desc>
    <defs></defs>
    <g id="Page-1" stroke="none" stroke-width="1" fill="none" fill-rule="evenodd" sketch:type="MSPage">
        <path d="M0.06,0.002 L160.016,0.002 L160.016,160.007 L0.06,160.007 L0.06,0.002 Z" id="Fill-17" fill="#D9654E" sketch:type="MSShapeGroup"></path>
        <path d="M57.634,86.5 C57.634,85.812 57.566,85.261 57.909,84.644 C56.664,86.053 56.536,87.392 56.741,88.491 C57.085,90.621 58.504,91.927 60.825,92.252 C62.201,92.445 64.779,91.997 65.605,90.965 C61.756,92.133 57.634,91.444 57.634,86.5" id="Fill-21" fill="#CAC3BB" sketch:type="MSShapeGroup"></path>
        <path d="M65.605,90.965 C64.779,91.997 62.201,92.445 60.825,92.252 C58.504,91.927 57.085,90.621 56.741,88.491 C56.536,87.392 56.664,86.053 57.909,84.644 C58.665,84.3 59.765,83.955 60.588,83.888 C64.436,83.682 66.567,87.596 65.605,90.965 L65.605,90.965 Z M69.251,84.663 C68.68,83.838 68.009,83.026 67.253,82.238 C68.696,79.352 66.635,75.025 64.162,74.613 C65.811,76.675 65.191,79.766 63.956,82.238 C60.863,80.59 56.217,82.152 54.362,85.038 C52.92,84.625 51.638,84.714 50.352,84.918 C51.382,85.331 52.414,85.947 53.443,86.36 C53.443,87.186 53.172,88.179 52.414,88.834 C44.58,88.834 36.748,96.255 36.541,104.088 C36.541,105.668 36.92,107.622 37.315,109.235 C38.208,109.613 39.157,109.999 40.173,110.401 C42.964,111.499 45.789,112.519 48.652,113.433 C49.973,112.743 52.175,111.69 53.512,110.89 C58.975,107.611 62.539,102.704 65.751,97.382 L65.812,97.285 C72.494,94.648 72.573,89.457 69.251,84.663 L69.251,84.663 Z" id="Fill-22" fill="#2C2A2C" sketch:type="MSShapeGroup"></path>
        <path d="M64.162,74.614 C54.552,66.665 47.478,72.638 38.689,77.582 C36.354,78.818 33.331,80.331 30.857,81.018 C30.857,79.369 31.27,77.856 31.682,76.346 C33.192,70.986 37.453,66.039 40.201,61.229 C38.964,59.306 37.453,57.794 36.079,56.007 C32.919,51.747 29.502,40.132 36.647,38.104 C40.684,38.939 49.27,43.091 52.019,48.038 C53.249,47.081 56.111,46.54 57.757,46.764 C52.494,38.81 41.798,35.801 34.543,35.01 C26.504,39.339 28.772,48.819 32.687,56.034 C33.512,57.89 34.749,59.332 35.78,61.187 C31.039,73.349 13.25,83.888 23.143,99.346 C25.209,102.539 28.194,105.368 37.315,109.235 C36.92,107.622 36.541,105.668 36.541,104.088 C36.748,96.255 44.58,88.834 52.414,88.834 C53.172,88.179 53.443,87.186 53.443,86.36 C52.414,85.947 51.382,85.331 50.352,84.918 C51.638,84.714 52.92,84.625 54.362,85.038 C56.217,82.152 60.863,80.59 63.956,82.238 C65.191,79.766 65.811,76.675 64.162,74.614" id="Fill-23" fill="#CAC3BB" sketch:type="MSShapeGroup"></path>
        <path d="M122.408,61.188 C123.438,59.333 124.674,57.891 125.5,56.036 C129.416,48.821 131.683,39.339 123.644,35.012 C116.388,35.802 105.69,38.812 100.428,46.768 C102.073,46.54 104.953,47.065 106.188,48.024 C108.936,43.078 117.429,38.939 121.466,38.104 C129.196,40.923 125.287,51.733 122.126,55.994 C120.753,57.78 119.241,59.292 118.005,61.215 C120.753,66.025 125.013,70.973 126.523,76.331 C126.936,77.843 127.348,79.353 127.348,81.003 C124.876,80.317 121.852,78.804 119.516,77.568 C110.722,72.621 103.645,66.644 94.025,74.614 C92.377,76.675 92.996,79.766 94.231,82.241 C97.324,80.591 101.969,82.153 103.825,85.04 C105.268,84.627 106.548,84.715 107.836,84.92 C106.804,85.332 105.774,85.95 104.743,86.362 C104.743,87.186 105.015,88.181 105.774,88.835 C113.607,88.835 121.439,96.255 121.646,104.089 C121.646,105.669 121.268,107.623 120.873,109.235 C129.995,105.369 132.978,102.541 135.043,99.348 C144.938,83.89 127.148,73.351 122.408,61.188" id="Fill-24" fill="#B5B1AB" sketch:type="MSShapeGroup"></path>
        <path d="M101.446,88.493 C101.103,90.622 99.682,91.928 97.363,92.252 C95.988,92.447 93.408,91.998 92.583,90.967 C91.622,87.599 93.751,83.682 97.598,83.89 C98.423,83.957 99.522,84.301 100.278,84.645 C101.523,86.054 101.652,87.392 101.446,88.493 L101.446,88.493 Z M105.774,88.835 C105.015,88.181 104.743,87.186 104.743,86.362 C105.774,85.95 106.804,85.332 107.836,84.92 C106.548,84.715 105.268,84.627 103.825,85.04 C101.969,82.153 97.324,80.591 94.231,82.241 C92.996,79.766 92.377,76.675 94.025,74.614 C91.553,75.026 89.492,79.353 90.934,82.241 C90.177,83.027 89.506,83.84 88.935,84.665 C85.613,89.459 85.694,94.649 92.377,97.286 L92.436,97.384 C95.649,102.704 99.212,107.612 104.675,110.891 C106.011,111.692 108.214,112.746 109.534,113.435 C112.398,112.52 115.223,111.499 118.015,110.401 C119.028,110.002 119.98,109.614 120.873,109.235 C121.268,107.623 121.646,105.669 121.646,104.089 C121.439,96.255 113.607,88.835 105.774,88.835 L105.774,88.835 Z" id="Fill-25" fill="#232224" sketch:type="MSShapeGroup"></path>
        <path d="M100.278,84.645 C100.621,85.262 100.553,85.813 100.553,86.5 C100.553,91.447 96.431,92.135 92.583,90.967 C93.408,91.998 95.988,92.447 97.363,92.252 C99.682,91.928 101.103,90.622 101.446,88.493 C101.652,87.392 101.523,86.054 100.278,84.645" id="Fill-26" fill="#B5B1AB" sketch:type="MSShapeGroup"></path>
        <path d="M121.005,39.539 C116.504,41.094 110.611,44.357 107.423,49.156 C109.072,52.868 111.648,55.857 115.051,58.02 C115.875,58.433 116.597,58.845 117.42,59.154 C123.59,55.316 127.91,42.011 121.005,39.539" id="Fill-27" fill="#101110" sketch:type="MSShapeGroup"></path>
        <path d="M96.57,87.389 C96.004,87.389 95.543,86.929 95.543,86.362 C95.543,85.797 96.004,85.336 96.57,85.336 C97.138,85.336 97.597,85.797 97.597,86.362 C97.597,86.929 97.138,87.389 96.57,87.389 L96.57,87.389 Z M100.278,84.645 C99.522,84.301 98.423,83.957 97.598,83.89 C93.751,83.682 91.622,87.599 92.583,90.967 C96.431,92.135 100.553,91.447 100.553,86.5 C100.553,85.813 100.621,85.262 100.278,84.645 L100.278,84.645 Z" id="Fill-28" fill="#101110" sketch:type="MSShapeGroup"></path>
        <path d="M96.57,87.389 C97.138,87.389 97.597,86.929 97.597,86.362 C97.597,85.797 97.138,85.336 96.57,85.336 C96.004,85.336 95.543,85.797 95.543,86.362 C95.543,86.929 96.004,87.389 96.57,87.389" id="Fill-29" fill="#FFFFFF" sketch:type="MSShapeGroup"></path>
        <path d="M37.182,39.538 C30.276,42.011 34.597,55.316 40.767,59.153 C41.592,58.843 42.313,58.431 43.137,58.018 C46.538,55.855 49.115,52.866 50.764,49.154 C47.577,44.356 41.684,41.092 37.182,39.538" id="Fill-30" fill="#1D1C1C" sketch:type="MSShapeGroup"></path>
        <path d="M83.703,116.407 C85.31,115.965 86.847,112.68 85.736,110.409 C86.011,111.577 85.668,112.953 84.707,113.775 C84.088,114.325 81.065,114.875 82.095,116.249 C82.439,116.731 83.169,116.593 83.703,116.407" id="Fill-31" fill="#101110" sketch:type="MSShapeGroup"></path>
        <path d="M61.616,87.388 C61.049,87.388 60.59,86.928 60.59,86.36 C60.59,85.793 61.049,85.335 61.616,85.335 C62.184,85.335 62.644,85.793 62.644,86.36 C62.644,86.928 62.184,87.388 61.616,87.388 L61.616,87.388 Z M60.588,83.888 C59.765,83.955 58.665,84.3 57.909,84.644 C57.566,85.261 57.634,85.812 57.634,86.5 C57.634,91.444 61.756,92.133 65.605,90.965 C66.567,87.596 64.436,83.682 60.588,83.888 L60.588,83.888 Z" id="Fill-32" fill="#1D1C1C" sketch:type="MSShapeGroup"></path>
        <path d="M61.616,85.335 C61.049,85.335 60.59,85.793 60.59,86.36 C60.59,86.928 61.049,87.388 61.616,87.388 C62.184,87.388 62.644,86.928 62.644,86.36 C62.644,85.793 62.184,85.335 61.616,85.335" id="Fill-33" fill="#FFFFFF" sketch:type="MSShapeGroup"></path>
        <path d="M73.481,113.774 C72.519,112.951 72.176,111.575 72.45,110.408 C71.342,112.678 72.878,115.963 74.484,116.406 C75.018,116.59 75.747,116.729 76.092,116.249 C77.121,114.874 74.099,114.323 73.481,113.774" id="Fill-34" fill="#1D1C1C" sketch:type="MSShapeGroup"></path>
        <path d="M64.065,103.761 C64.6,101.619 65.199,99.533 65.725,97.42 C62.518,102.727 58.96,107.619 53.509,110.889 C52.179,111.687 49.989,112.734 48.664,113.424 C53.649,115.017 58.75,116.286 63.993,117.072 L64.039,117.144 C62.131,113.507 63.308,107.259 64.065,103.761" id="Fill-35" fill="#B5B1AB" sketch:type="MSShapeGroup"></path>
        <path d="M104.672,110.89 C99.308,107.671 95.777,102.88 92.608,97.669 C93.121,99.703 93.694,101.714 94.21,103.775 C94.96,107.245 96.126,113.424 94.28,117.072 C99.502,116.288 104.583,115.025 109.547,113.442 C108.228,112.752 106.014,111.694 104.672,110.89" id="Fill-36" fill="#A3A09C" sketch:type="MSShapeGroup"></path>
        <path d="M79.085,120.445 C74.963,120.583 70.394,118.567 70.548,112.881 C70.548,111.338 71.089,110.321 71.932,109.647 C76.175,105.034 76.821,99.374 69.449,97.766 C68.179,97.511 66.91,97.492 65.75,97.381 L65.725,97.42 C65.199,99.533 64.6,101.619 64.065,103.761 C63.308,107.259 62.131,113.507 64.039,117.144 C67.35,122.435 73.96,123.334 79.087,123.539 L79.087,120.445 L79.085,120.445" id="Fill-37" fill="#CAC3BB" sketch:type="MSShapeGroup"></path>
        <path d="M94.21,103.775 C93.694,101.714 93.121,99.703 92.608,97.669 C92.551,97.574 92.49,97.479 92.432,97.382 C91.271,97.493 90.003,97.513 88.732,97.768 C81.365,99.374 82.005,105.029 86.241,109.64 C87.089,110.313 87.632,111.334 87.632,112.883 C87.789,118.567 83.21,120.583 79.087,120.445 L79.087,123.539 L79.097,123.539 C84.25,123.334 90.972,122.433 94.27,117.073 L94.28,117.072 C96.126,113.424 94.96,107.245 94.21,103.775" id="Fill-38" fill="#B5B1AB" sketch:type="MSShapeGroup"></path>
        <path d="M76.092,116.249 C75.747,116.729 75.018,116.59 74.484,116.406 C72.878,115.963 71.342,112.678 72.45,110.408 C72.176,111.575 72.519,112.951 73.481,113.774 C74.099,114.323 77.121,114.874 76.092,116.249 L76.092,116.249 Z M71.935,109.647 C71.093,110.321 70.552,111.338 70.552,112.881 C70.397,118.569 74.965,120.583 79.087,120.446 L79.087,108.343 C76.847,108.343 73.717,108.223 71.935,109.647 L71.935,109.647 Z" id="Fill-39" fill="#2C2A2C" sketch:type="MSShapeGroup"></path>
        <path d="M83.703,116.407 C83.169,116.593 82.439,116.731 82.095,116.249 C81.065,114.875 84.088,114.325 84.707,113.775 C85.668,112.953 86.011,111.577 85.736,110.409 C86.847,112.68 85.31,115.965 83.703,116.407 L83.703,116.407 Z M87.635,112.883 C87.635,111.334 87.091,110.315 86.245,109.641 C84.461,108.222 81.335,108.343 79.1,108.343 L79.087,108.343 L79.087,120.446 C83.211,120.583 87.792,118.569 87.635,112.883 L87.635,112.883 Z" id="Fill-40" fill="#232224" sketch:type="MSShapeGroup"></path>
        <path d="M74.948,61.078 C74.536,66.574 76.734,72.345 74.399,77.704 C73.312,80.286 71.29,82.748 69.251,84.663 C72.573,89.457 72.494,94.648 65.812,97.285 L65.751,97.382 C66.913,97.492 68.182,97.513 69.452,97.766 C76.823,99.375 76.178,105.036 71.935,109.647 C73.717,108.223 76.847,108.343 79.087,108.343 L79.087,47.045 C76.751,50.617 75.223,56.404 74.948,61.078" id="Fill-41" fill="#4D4540" sketch:type="MSShapeGroup"></path>
        <path d="M88.735,97.768 C90.006,97.513 91.274,97.493 92.436,97.384 L92.377,97.286 C85.694,94.649 85.613,89.459 88.935,84.665 C86.897,82.749 84.875,80.288 83.789,77.705 C81.451,72.346 83.651,66.576 83.238,61.079 C82.964,56.406 81.425,50.617 79.087,47.045 L79.087,108.343 L79.1,108.343 C81.335,108.343 84.461,108.222 86.245,109.641 C82.007,105.029 81.368,99.375 88.735,97.768" id="Fill-42" fill="#413B36" sketch:type="MSShapeGroup"></path>
        <path d="M115.051,58.02 C111.648,55.857 109.072,52.868 107.423,49.156 C110.611,44.357 116.504,41.094 121.005,39.539 C127.91,42.011 123.59,55.316 117.42,59.154 C116.597,58.845 115.875,58.433 115.051,58.02 L115.051,58.02 Z M126.523,76.331 C125.013,70.973 120.753,66.025 118.005,61.215 C119.241,59.292 120.753,57.78 122.126,55.994 C125.287,51.733 129.196,40.923 121.466,38.104 C117.429,38.939 108.936,43.078 106.188,48.024 C104.953,47.065 102.073,46.54 100.428,46.768 L100.415,46.788 C94.231,43.901 85.89,43.695 79.087,46.168 L79.087,47.045 C81.425,50.617 82.964,56.406 83.238,61.079 C83.651,66.576 81.451,72.346 83.789,77.705 C84.875,80.288 86.897,82.749 88.935,84.665 C89.506,83.84 90.177,83.027 90.934,82.241 C89.492,79.353 91.553,75.026 94.025,74.614 C103.645,66.644 110.722,72.621 119.516,77.568 C121.852,78.804 124.876,80.317 127.348,81.003 C127.348,79.353 126.936,77.843 126.523,76.331 L126.523,76.331 Z" id="Fill-43" fill="#6D6764" sketch:type="MSShapeGroup"></path>
        <g id="Group-47" sketch:type="MSLayerGroup" transform="translate(30.000000, 38.000000)" fill="#776F6C">
            <path d="M13.137,20.018 C12.313,20.431 11.592,20.843 10.767,21.153 C4.597,17.316 0.276,4.011 7.182,1.538 C11.684,3.092 17.577,6.356 20.764,11.154 C19.115,14.866 16.538,17.855 13.137,20.018 L13.137,20.018 Z M27.773,8.786 L27.757,8.764 C26.111,8.54 23.249,9.081 22.019,10.038 C19.27,5.091 10.684,0.939 6.647,0.104 C-0.498,2.132 2.919,13.747 6.079,18.007 C7.453,19.794 8.964,21.306 10.201,23.229 C7.453,28.039 3.192,32.986 1.682,38.346 C1.27,39.856 0.857,41.369 0.857,43.018 C3.331,42.331 6.354,40.818 8.689,39.582 C17.478,34.638 24.552,28.665 34.162,36.614 L34.162,36.613 C36.635,37.025 38.696,41.352 37.253,44.238 C38.009,45.026 38.68,45.838 39.251,46.663 C41.29,44.748 43.312,42.286 44.399,39.704 C46.734,34.345 44.536,28.574 44.948,23.078 C45.223,18.404 46.751,12.617 49.087,9.045 L49.087,8.168 C42.285,5.695 33.956,5.9 27.773,8.786 L27.773,8.786 Z" id="Fill-44" sketch:type="MSShapeGroup"></path>
        </g>
        <path d="M117.031795,88.344745 C117.031795,88.344745 115.795277,98.787201 111.656212,101.938058 C111.656212,101.938058 102.633991,107.684429 92.9331101,103.66868 C92.9331101,103.66868 85.3328008,100.331591 85.2094845,86.243335 C85.2094845,86.243335 84.8865133,82.5639799 88.7864954,80.8199354 C88.7864954,80.8199354 101.638233,76.3713216 113.346568,79.244507 C113.346568,79.244507 118.390791,80.1890929 117.031795,88.344745 M124.196723,77.6548176 C103.435127,73.5769915 83.951994,78.7671807 83.951994,78.7671807 C82.6743702,79.3023902 79.3993583,79.5507005 79.3993583,79.5507005 L79.3951639,79.5507005 L79.3951639,86.1820963 L79.3993583,86.1820963 C81.8094785,86.2441739 82.860603,88.838849 82.860603,88.838849 C85.331123,101.629348 91.7578305,104.2861 91.7578305,104.2861 C99.1719072,108.54932 109.058182,105.093948 109.058182,105.093948 C114.24921,103.306281 116.164387,99.2192274 116.164387,99.2192274 C118.389113,95.4501115 120.365529,87.6644083 120.365529,87.6644083 C121.354576,83.6486598 123.331831,83.3802162 123.331831,83.3802162 L124.361983,78.6228923 C124.505433,77.8603447 124.196723,77.6548176 124.196723,77.6548176 M73.59091,86.2441739 C73.4675937,100.331591 65.8672843,103.669519 65.8672843,103.669519 C56.1664037,107.685267 47.1458599,101.938897 47.1458599,101.938897 C43.0059563,98.787201 41.7702768,88.344745 41.7702768,88.344745 C40.4104422,80.1890929 45.4546652,79.244507 45.4546652,79.244507 C57.1630006,76.3713216 70.013899,80.8199354 70.013899,80.8199354 C73.9138812,82.5639799 73.59091,86.2441739 73.59091,86.2441739 M74.8475616,78.7680196 C74.8475616,78.7680196 55.3635896,73.5778304 34.6028328,77.6564953 C34.6028328,77.6564953 34.2941226,77.8620225 34.4384111,78.6237312 L35.4677245,83.3810551 C35.4677245,83.3810551 37.4441405,83.6494987 38.4331874,87.666086 C38.4331874,87.666086 40.4104422,95.4509504 42.6351686,99.2209052 C42.6351686,99.2209052 44.5503459,103.30712 49.741374,105.093948 C49.741374,105.093948 59.6268095,108.550159 67.041725,104.286939 C67.041725,104.286939 73.4675937,101.630187 75.9397914,88.8396879 C75.9397914,88.8396879 76.9883993,86.2475294 79.3951639,86.1820963 L79.3951639,79.5507005 C79.306242,79.5431505 76.1067298,79.2956791 74.8475616,78.7680196" id="glasses" fill="#410403" sketch:type="MSShapeGroup"></path>
    </g>
</svg>