<?xml version="1.0" encoding="utf-8"?>
<!-- Generator: Adobe Illustrator 21.1.0, SVG Export Plug-In . SVG Version: 6.00 Build 0)  -->
<svg version="1.1" id="Abevy-logo" xmlns="http://www.w3.org/2000/svg" xmlns:xlink="http://www.w3.org/1999/xlink" x="0px" y="0px"
	 viewBox="0 0 449 187" style="enable-background:new 0 0 449 187;" xml:space="preserve">
<style type="text/css">
	.st0{fill:#4747FF;stroke:#FF4747;stroke-width:11;}
	.st1{fill:#4747FF;stroke:#FF4747;stroke-width:5;}
	.st2{enable-background:new    ;}
	.st3{fill:#FF4747;}
</style>
<g id="abevy-A" transform="translate(9.000000, 13.000000)">
	<polygon id="triangle" class="st0" points="67.5,0 135,135 0,135 	"/>
	<g id="rungs" transform="translate(28.000000, 60.000000)">
		<path id="rung-bottom" class="st1" d="M0,22h80"/>
		<path id="rung-middle" class="st1" d="M5,11.5h70"/>
		<path id="rung-top" class="st1" d="M10,1h60"/>
	</g>
</g>
<g id="bevy" transform="translate(149.000000, 2.000000)">
	<g id="y-outlined" class="st2">
		<path id="y-compound" class="st3" d="M284.2,69.4h15.2c-1.9,5.2-6.2,17.2-12.9,35.8c-5,14-9.1,25.5-12.5,34.3
			c-7.9,20.8-13.5,33.5-16.7,38.1c-3.2,4.6-8.8,6.9-16.7,6.9c-1.9,0-3.4-0.1-4.5-0.2s-2.3-0.4-3.8-0.8v-12.5
			c2.4,0.7,4.1,1.1,5.2,1.2s2,0.2,2.8,0.2c2.5,0,4.4-0.4,5.6-1.3s2.2-1.9,3-3.1c0.3-0.4,1.2-2.5,2.7-6.2c1.6-3.8,2.7-6.5,3.4-8.4
			l-30.2-84h15.5l21.9,66.5L284.2,69.4z"/>
	</g>
	<g id="v-outlined" class="st2">
		<path id="v-compound" class="st3" d="M164.8,69.4l21.8,66.4l22.7-66.4h15L193.6,151H179l-30.1-81.6H164.8z"/>
	</g>
	<g id="e-outlined" class="st2">
		<path id="e-compound" class="st3" d="M137.4,71.7c5.4,2.7,9.5,6.2,12.3,10.5c2.7,4.1,4.5,8.9,5.5,14.4c0.8,3.8,1.2,9.8,1.2,18
			H97.1c0.3,8.3,2.2,15,5.8,20c3.6,5,9.2,7.5,16.9,7.5c7.1,0,12.8-2.4,17-7.1c2.4-2.8,4-5.9,5-9.6h13.5c-0.4,3-1.5,6.3-3.5,10
			c-2,3.7-4.2,6.7-6.7,9c-4.1,4.1-9.2,6.8-15.3,8.2c-3.3,0.8-7,1.2-11.1,1.2c-10.1,0-18.6-3.7-25.7-11.1c-7-7.4-10.5-17.7-10.5-31
			c0-13.1,3.5-23.7,10.6-31.9c7.1-8.2,16.3-12.3,27.7-12.3C126.5,67.6,132,69,137.4,71.7z M142.4,103.7c-0.6-5.9-1.8-10.7-3.9-14.2
			c-3.7-6.6-9.9-9.9-18.7-9.9c-6.2,0-11.5,2.3-15.7,6.8c-4.2,4.5-6.5,10.3-6.7,17.3H142.4z"/>
	</g>
	<g id="b-outlined" class="st2">
		<path id="b-compound" class="st3" d="M8.9,38.7h13.3v40.6c3-3.9,6.6-6.9,10.8-9c4.2-2.1,8.7-3.1,13.6-3.1
			c10.2,0,18.5,3.5,24.8,10.5c6.3,7,9.5,17.3,9.5,30.9c0,12.9-3.1,23.6-9.4,32.1s-15,12.8-26.1,12.8c-6.2,0-11.5-1.5-15.8-4.5
			c-2.5-1.8-5.3-4.6-8.2-8.5V151H8.9V38.7z M61.3,132.6c3.7-5.9,5.5-13.7,5.5-23.3c0-8.6-1.8-15.7-5.5-21.3s-9.1-8.5-16.3-8.5
			c-6.3,0-11.8,2.3-16.5,6.9c-4.7,4.6-7.1,12.2-7.1,22.9c0,7.7,1,13.9,2.9,18.7c3.6,9,10.4,13.5,20.3,13.5
			C52.1,141.5,57.6,138.5,61.3,132.6z"/>
	</g>
</g>
</svg>
